<svg width="50" height="50" viewBox="0 0 50 50" fill="none" xmlns="http://www.w3.org/2000/svg">
<path d="M24 18V34M16 26H32M44 26C44 37.0457 35.0457 46 24 46C12.9543 46 4 37.0457 4 26C4 14.9543 12.9543 6 24 6C35.0457 6 44 14.9543 44 26Z" stroke="#939FFF" stroke-width="4" stroke-linecap="round" stroke-linejoin="round"/>
<path d="M26 16V32M18 24H34M46 24C46 35.0457 37.0457 44 26 44C14.9543 44 6 35.0457 6 24C6 12.9543 14.9543 4 26 4C37.0457 4 46 12.9543 46 24Z" stroke="#344BFD" stroke-width="4" stroke-linecap="round" stroke-linejoin="round"/>
</svg>
