<svg width="50" height="50" viewBox="0 0 50 50" fill="none" xmlns="http://www.w3.org/2000/svg">
<path d="M6 14H10M10 14H42M10 14V42C10 43.0609 10.4214 44.0783 11.1716 44.8284C11.9217 45.5786 12.9391 46 14 46H34C35.0609 46 36.0783 45.5786 36.8284 44.8284C37.5786 44.0783 38 43.0609 38 42V14M16 14V10C16 8.93913 16.4214 7.92172 17.1716 7.17157C17.9217 6.42143 18.9391 6 20 6H28C29.0609 6 30.0783 6.42143 30.8284 7.17157C31.5786 7.92172 32 8.93913 32 10V14M20 24V36M28 24V36" stroke="#939FFF" stroke-width="4" stroke-linecap="round" stroke-linejoin="round"/>
<path d="M8 12H12M12 12H44M12 12V40C12 41.0609 12.4214 42.0783 13.1716 42.8284C13.9217 43.5786 14.9391 44 16 44H36C37.0609 44 38.0783 43.5786 38.8284 42.8284C39.5786 42.0783 40 41.0609 40 40V12M18 12V8C18 6.93913 18.4214 5.92172 19.1716 5.17157C19.9217 4.42143 20.9391 4 22 4H30C31.0609 4 32.0783 4.42143 32.8284 5.17157C33.5786 5.92172 34 6.93913 34 8V12M22 22V34M30 22V34" stroke="#344BFD" stroke-width="4" stroke-linecap="round" stroke-linejoin="round"/>
</svg>
